<?xml version="1.0" encoding="iso-8859-1"?>
<!-- Generator: Adobe Illustrator 17.1.0, SVG Export Plug-In . SVG Version: 6.00 Build 0)  -->
<!DOCTYPE svg PUBLIC "-//W3C//DTD SVG 1.1//EN" "http://www.w3.org/Graphics/SVG/1.1/DTD/svg11.dtd">
<svg version="1.1" id="Capa_1" xmlns="http://www.w3.org/2000/svg" xmlns:xlink="http://www.w3.org/1999/xlink" x="0px" y="0px"
	 viewBox="0 0 212.857 212.857" style="enable-background:new 0 0 212.857 212.857;" xml:space="preserve">
<path d="M190.725,6.221C185.69,2.151,179.203,0,171.968,0c-17.665,0-38.646,12.381-54.754,32.312
	c-15.592,19.292-22.754,40.773-20.578,57.23c-4.549,1.46-8.62,4.212-11.71,8.035c-4.174,5.164-6.087,11.645-5.387,18.248
	c0.428,4.034,1.804,7.816,3.985,11.102L56.45,160.424c-2.854,3.532-6.913,5.74-11.429,6.219c-4.511,0.479-8.946-0.829-12.479-3.684
	c-7.291-5.892-8.428-16.617-2.536-23.908l0.874-1.081c0.638,3.896,4.209,6.666,8.191,6.239c4.119-0.437,7.104-4.13,6.667-8.249
	l-1.862-17.564c-0.319-3.017-2.425-5.543-5.335-6.402c-2.907-0.859-6.05,0.12-7.956,2.479l-12.245,15.15
	c-11.091,13.723-8.95,33.911,4.772,45.002c5.749,4.646,12.765,7.116,20.055,7.116c1.14,0,2.286-0.061,3.436-0.183
	c1.061-0.112,2.108-0.276,3.14-0.488c0.071,9.256,4.125,18.411,11.868,24.669c5.749,4.646,12.766,7.116,20.055,7.116
	c1.14,0,2.286-0.061,3.436-0.182c8.5-0.901,16.141-5.059,21.513-11.707l12.244-15.149c1.907-2.359,2.205-5.635,0.755-8.299
	c-1.45-2.664-4.358-4.196-7.379-3.873l-17.564,1.863c-4.119,0.437-7.104,4.13-6.667,8.249c0.421,3.974,3.888,6.895,7.818,6.701
	l-0.873,1.081c-2.854,3.532-6.913,5.74-11.429,6.219c-4.513,0.48-8.947-0.829-12.479-3.684c-7.29-5.892-8.428-16.617-2.536-23.908
	l27.191-33.643c2.727,1.001,5.623,1.537,8.553,1.537c7.551,0,14.601-3.365,19.344-9.233c3.141-3.886,4.909-8.44,5.381-13.075
	c16.98-1.332,36.482-13.404,51.66-32.183C204.073,54.568,208.506,20.592,190.725,6.221z M111.927,119.399
	c-1.881,2.327-4.68,3.662-7.678,3.662c-2.273,0-4.413-0.758-6.188-2.192c-2.048-1.655-3.328-4.009-3.606-6.627
	c-0.277-2.619,0.481-5.188,2.137-7.237c1.881-2.328,4.68-3.663,7.679-3.663c2.272,0,4.412,0.758,6.186,2.192
	C114.685,108.952,115.344,115.171,111.927,119.399z"/>
<g>
</g>
<g>
</g>
<g>
</g>
<g>
</g>
<g>
</g>
<g>
</g>
<g>
</g>
<g>
</g>
<g>
</g>
<g>
</g>
<g>
</g>
<g>
</g>
<g>
</g>
<g>
</g>
<g>
</g>
</svg>
